# xmcd
#
# Track frame offsets: 
#        150
#        14973
#        26786
#        47190
#        61428
#        74122
#        87781
#        101611
#        118442
#        134061
#        151069
#        161671
#        172988
#        186825
#
# Disc length: 2645 seconds
#
# Revision: 0
# Processed by: cddbd v1.5.2PL0 Copyright (c) Steve Scherf et al.
# Submitted via: ExactAudioCopy v0.99pb4
#
DISCID=d20a530e
DTITLE=Celtic Journey - The Wild Rover
DYEAR=2007
DGENRE=Celtic
TTITLE0=Whiskey in The Jar
TTITLE1=The Moonshiner
TTITLE2=Seven Drunken Nights
TTITLE3=Rocky Road to Dublin
TTITLE4=The Wild Rover
TTITLE5=Finnigan's Wake
TTITLE6=Step It Out Mary
TTITLE7=The Hot Asphalt
TTITLE8=The Holy Ground
TTITLE9=Black Velvet Band
TTITLE10=The Bold O'Donahue
TTITLE11=The Irish Rover
TTITLE12=Muirsheen Durkin
TTITLE13=The Hills of Connemara
EXTD=
EXTT0=
EXTT1=
EXTT2=
EXTT3=
EXTT4=
EXTT5=
EXTT6=
EXTT7=
EXTT8=
EXTT9=
EXTT10=
EXTT11=
EXTT12=
EXTT13=
PLAYORDER=
